<svg width="0" height="0" class="hidden">
  <symbol xmlns="http://www.w3.org/2000/svg" viewBox="0 0 475.092 475.092" id="google-plus-symbol">
    <title>google-plus-symbol</title>
    <path d="M273.372 302.498a148.384 148.384 0 0 0-16.7-18.842c-6.091-5.804-12.183-11.088-18.271-15.845-6.092-4.757-11.659-9.329-16.702-13.709-5.042-4.374-9.135-8.945-12.275-13.702-3.14-4.757-4.711-9.61-4.711-14.558 0-6.855 2.19-13.278 6.567-19.274 4.377-5.996 9.707-11.799 15.986-17.417 6.28-5.617 12.559-11.753 18.844-18.415 6.276-6.665 11.604-15.465 15.985-26.412 4.373-10.944 6.563-23.458 6.563-37.542 0-16.75-3.713-32.835-11.136-48.25-7.423-15.418-17.89-27.412-31.405-35.976h38.54L303.2 0H178.441c-17.699 0-35.498 1.906-53.384 5.72-26.453 5.9-48.723 19.368-66.806 40.397-18.08 21.033-27.122 44.873-27.122 71.52 0 28.171 10.138 51.583 30.406 70.233 20.269 18.649 44.585 27.978 72.945 27.978 5.71 0 12.371-.478 19.985-1.427-.381 1.521-1.043 3.567-1.997 6.136s-1.715 4.62-2.286 6.14c-.57 1.521-1.047 3.375-1.425 5.566a38.99 38.99 0 0 0-.571 6.71c0 12.563 6.086 26.744 18.271 42.541-14.465.387-28.737 1.67-42.825 3.86-14.084 2.19-28.833 5.616-44.252 10.28-15.417 4.661-29.217 11.42-41.396 20.27-12.182 8.854-21.317 19.366-27.408 31.549C3.533 361.559.01 374.405.01 386.017c0 12.751 2.857 24.314 8.565 34.69 5.708 10.369 13.035 18.842 21.982 25.406 8.945 6.57 19.273 12.083 30.978 16.562 11.704 4.47 23.315 7.659 34.829 9.562 11.516 1.903 22.888 2.854 34.119 2.854 51.007 0 90.981-12.464 119.909-37.397 26.648-23.223 39.971-50.062 39.971-80.517 0-10.855-1.57-20.984-4.712-30.409-3.141-9.431-7.231-17.514-12.279-24.27zM163.311 198.722c-9.707 0-18.937-2.475-27.694-7.426-8.757-4.95-16.18-11.374-22.27-19.273-6.088-7.898-11.418-16.796-15.987-26.695-4.567-9.896-7.944-19.792-10.135-29.692-2.19-9.895-3.284-19.318-3.284-28.265 0-18.271 4.854-33.974 14.562-47.108 9.705-13.134 23.411-19.701 41.112-19.701 12.563 0 23.935 3.899 34.118 11.704 10.183 7.804 18.177 17.701 23.984 29.692a187.496 187.496 0 0 1 13.417 37.257c3.14 12.847 4.711 24.983 4.711 36.403 0 19.036-4.139 34.317-12.419 45.833-8.282 11.513-21.651 17.271-40.115 17.271zm78.94 214.401c-5.23 8.949-12.319 15.94-21.267 20.981-8.946 5.048-18.509 8.758-28.693 11.14-10.183 2.385-20.889 3.572-32.12 3.572-12.182 0-24.27-1.431-36.258-4.284-11.99-2.851-23.459-7.187-34.403-12.991-10.944-5.8-19.795-13.798-26.551-23.982-6.757-10.184-10.135-21.744-10.135-34.69 0-11.419 2.568-21.601 7.708-30.55 5.142-8.945 11.709-16.084 19.702-21.408 7.994-5.332 17.319-9.713 27.979-13.131 10.66-3.433 20.937-5.808 30.833-7.139 9.895-1.335 19.985-1.995 30.262-1.995 6.283 0 11.043.191 14.277.567 1.143.767 4.043 2.759 8.708 5.996s7.804 5.428 9.423 6.57c1.615 1.137 4.567 3.326 8.85 6.563 4.281 3.237 7.327 5.661 9.135 7.279 1.803 1.618 4.421 4.045 7.849 7.279 3.424 3.237 5.948 6.043 7.566 8.422a982.05 982.05 0 0 0 5.996 8.702c2.38 3.433 4.043 6.715 4.998 9.855a158.985 158.985 0 0 1 2.707 10.277c.855 3.72 1.283 7.569 1.283 11.57.005 11.987-2.613 22.456-7.849 31.397z"></path>
    <path d="M401.998 73.089V0h-36.549v73.089h-73.091v36.547h73.091v73.089h36.549v-73.089h73.083V73.089z"></path>
  </symbol>
  <symbol xmlns="http://www.w3.org/2000/svg" viewBox="0 0 97.672 97.672" id="pinterest-social-logo">
    <title>pinterest-social-logo</title>
    <path d="M51.125 0C24.469 0 11.029 19.11 11.029 35.047c0 9.649 3.653 18.232 11.487 21.432 1.286.525 2.438.019 2.812-1.403.258-.985.871-3.468 1.144-4.503.376-1.407.229-1.9-.807-3.126-2.259-2.665-3.703-6.115-3.703-11.002 0-14.178 10.608-26.87 27.624-26.87 15.064 0 23.342 9.206 23.342 21.5 0 16.176-7.159 29.828-17.786 29.828-5.87 0-10.262-4.854-8.854-10.807 1.686-7.107 4.951-14.778 4.951-19.907 0-4.592-2.463-8.423-7.565-8.423-6 0-10.819 6.207-10.819 14.521 0 5.296 1.789 8.878 1.789 8.878s-6.141 26.015-7.215 30.571c-2.145 9.072-.322 20.195-.168 21.318.089.666.944.824 1.332.322.555-.723 7.7-9.544 10.129-18.359.687-2.496 3.944-15.42 3.944-15.42 1.95 3.717 7.647 6.992 13.706 6.992 18.034 0 30.271-16.441 30.271-38.45C86.644 15.498 72.547 0 51.125 0z"></path>
  </symbol>
  <symbol xmlns="http://www.w3.org/2000/svg" viewBox="0 0 438.542 438.543" id="tumblr-logo">
    <title>tumblr-logo</title>
    <path d="M288.078 367.164c-12.748 0-23.887-2.95-33.4-8.85-7.427-4.381-12.368-10.089-14.842-17.132-2.673-6.852-4.001-23.223-4.001-49.115V179.58h103.921v-68.806H235.834V0h-62.53c-2.856 22.458-7.992 41.109-15.415 55.963-7.424 14.655-17.227 27.218-29.408 37.685-12.183 10.282-26.934 18.276-44.255 23.984v61.955h48.535v153.889c0 20.365 2.096 35.69 6.28 45.967 3.999 10.283 11.519 20.272 22.557 29.981 11.419 9.514 24.554 16.652 39.399 21.406 15.418 5.14 33.12 7.713 53.105 7.713 18.274 0 34.735-1.813 49.392-5.428 14.466-3.237 31.409-9.424 50.823-18.562V345.46c-21.892 14.473-43.968 21.704-66.239 21.704z"></path>
  </symbol>
  <symbol xmlns="http://www.w3.org/2000/svg" viewBox="0 0 512 512" id="youtube">
    <title>youtube</title>
    <path d="M490.24 113.92c-13.888-24.704-28.96-29.248-59.648-30.976C399.936 80.864 322.848 80 256.064 80c-66.912 0-144.032.864-174.656 2.912-30.624 1.76-45.728 6.272-59.744 31.008C7.36 138.592 0 181.088 0 255.904v.256c0 74.496 7.36 117.312 21.664 141.728 14.016 24.704 29.088 29.184 59.712 31.264C112.032 430.944 189.152 432 256.064 432c66.784 0 143.872-1.056 174.56-2.816 30.688-2.08 45.76-6.56 59.648-31.264C504.704 373.504 512 330.688 512 256.192v-.256c0-74.848-7.296-117.344-21.76-142.016zM192 352V160l160 96-160 96z"></path>
  </symbol>
  <symbol xmlns="http://www.w3.org/2000/svg" viewBox="0 0 512 512" id="dribble">
    <title>dribble</title>
    <path d="M256 0C115.04 0 0 115.05 0 256c0 140.96 115.05 256 256 256 140.96 0 256-115.05 256-256C512 115.04 396.95 0 256 0zm173.64 111.51c31.96 38.34 51.47 87.39 52.31 140.89-40.06-9.37-84.55-10-129.86-1.74a392.024 392.024 0 0 0-35.3 8.16 716.92 716.92 0 0 0-12.44-31.55 700.81 700.81 0 0 0-14.19-31.38c53.99-20.62 112.49-51.32 139.48-84.38zM256 30c58.82 0 112.45 22.59 152.7 59.54-15.7 21.41-60.44 52.58-132.22 79.46-25.06-46.66-55.11-89.54-89.83-128.1C208.51 33.83 231.82 30 256 30zm-99.05 22.9c35.41 37.93 65.87 80.29 90.96 126.05-74.68 24.17-150.29 34.03-212.46 27.66C50.59 138.96 96.14 82.67 156.95 52.9zM30 256c0-6.64.31-13.21.87-19.7 13.72 1.45 28.03 2.18 42.82 2.18 58.33 0 123.86-11.22 188.21-32.53 9.82 20.1 18.65 40.78 26.44 61.97-25.09 9.02-49.51 20.49-72.44 34.14-56.22 33.47-97.35 76.53-114.41 118.71C57.52 379.51 30 320.91 30 256zm226 226c-48.29 0-93.09-15.23-129.86-41.14 11.4-38.52 49.96-80.19 105.11-113.02 19.43-11.58 42.15-22.49 66.88-31.36 17.53 55.1 28.27 113.26 31.68 173.13C306.67 477.63 281.84 482 256 482zm103.07-24.9c-4.16-58.32-15.02-115.1-32.45-169.64 48.6-13.36 102.58-17.84 153.77-4.56-9.06 76.01-55.98 140.57-121.32 174.2z"></path>
  </symbol>
  <symbol xmlns="http://www.w3.org/2000/svg" viewBox="0 0 438.536 438.536" id="instagram-symbol">
    <title>instagram-symbol</title>
    <path d="M421.981 16.562C410.941 5.519 397.711 0 382.298 0H56.248C40.83 0 27.604 5.521 16.561 16.562 5.52 27.6.001 40.828.001 56.243V382.29c0 15.413 5.518 28.644 16.56 39.683 11.043 11.04 24.272 16.563 39.687 16.563h326.046c15.41 0 28.644-5.523 39.684-16.563 11.043-11.039 16.557-24.27 16.557-39.683V56.243c-.001-15.418-5.514-28.639-16.554-39.681zM157.462 158.025c17.224-16.652 37.924-24.982 62.097-24.982 24.36 0 45.153 8.33 62.381 24.982 17.228 16.655 25.837 36.785 25.837 60.386 0 23.598-8.609 43.729-25.837 60.379-17.228 16.659-38.014 24.988-62.381 24.988-24.172 0-44.87-8.336-62.097-24.988-17.228-16.652-25.841-36.781-25.841-60.379 0-23.601 8.613-43.73 25.841-60.386zm231.403 212.564c0 4.945-1.718 9.083-5.141 12.416-3.433 3.33-7.519 4.996-12.282 4.996h-305.2c-4.948 0-9.091-1.666-12.419-4.996-3.333-3.326-4.998-7.471-4.998-12.416V185.575H89.08c-3.805 11.993-5.708 24.462-5.708 37.402 0 36.553 13.322 67.715 39.969 93.511 26.65 25.786 58.721 38.685 96.217 38.685 24.744 0 47.583-5.903 68.527-17.703 20.937-11.807 37.486-27.839 49.676-48.112 12.183-20.272 18.274-42.4 18.274-66.38 0-12.94-1.91-25.406-5.715-37.402h38.547V370.59h-.002zm0-254.963c0 5.52-1.903 10.184-5.716 13.99-3.805 3.809-8.466 5.711-13.989 5.711h-49.676c-5.517 0-10.185-1.903-13.99-5.711-3.806-3.806-5.708-8.47-5.708-13.99V68.522c0-5.33 1.902-9.945 5.708-13.848 3.806-3.901 8.474-5.854 13.99-5.854h49.676c5.523 0 10.185 1.952 13.989 5.854 3.812 3.903 5.716 8.518 5.716 13.848v47.104z"></path>
  </symbol>
  <symbol xmlns="http://www.w3.org/2000/svg" viewBox="0 0 512 512" id="twitter">
    <title>twitter</title>
    <path d="M512 97.248c-19.04 8.352-39.328 13.888-60.48 16.576 21.76-12.992 38.368-33.408 46.176-58.016-20.288 12.096-42.688 20.64-66.56 25.408C411.872 60.704 384.416 48 354.464 48c-58.112 0-104.896 47.168-104.896 104.992 0 8.32.704 16.32 2.432 23.936-87.264-4.256-164.48-46.08-216.352-109.792-9.056 15.712-14.368 33.696-14.368 53.056 0 36.352 18.72 68.576 46.624 87.232-16.864-.32-33.408-5.216-47.424-12.928v1.152c0 51.008 36.384 93.376 84.096 103.136-8.544 2.336-17.856 3.456-27.52 3.456-6.72 0-13.504-.384-19.872-1.792 13.6 41.568 52.192 72.128 98.08 73.12-35.712 27.936-81.056 44.768-130.144 44.768-8.608 0-16.864-.384-25.12-1.44C46.496 446.88 101.6 464 161.024 464c193.152 0 298.752-160 298.752-298.688 0-4.64-.16-9.12-.384-13.568 20.832-14.784 38.336-33.248 52.608-54.496z"></path>
  </symbol>
  <symbol xmlns="http://www.w3.org/2000/svg" viewBox="0 0 430.113 430.114" id="facebook-letter-logo">
    <title>facebook-letter-logo</title>
    <path d="M158.081 83.3v59.218h-43.385v72.412h43.385v215.183h89.122V214.936h59.805s5.601-34.721 8.316-72.685H247.54V92.74c0-7.4 9.717-17.354 19.321-17.354h48.557V.001h-66.021C155.878-.004 158.081 72.48 158.081 83.3z"></path>
  </symbol>
  <symbol xmlns="http://www.w3.org/2000/svg" viewBox="0 0 512 512" id="menu">
    <title>menu</title>
	<path d="M501.333,96H10.667C4.779,96,0,100.779,0,106.667s4.779,10.667,10.667,10.667h490.667c5.888,0,10.667-4.779,10.667-10.667    S507.221,96,501.333,96z"/>
	<path d="m501.33 245.33h-490.67c-5.888 0-10.667 4.779-10.667 10.667s4.779 10.667 10.667 10.667h490.67c5.888 0 10.667-4.779 10.667-10.667s-4.78-10.667-10.668-10.667z"/>
	<path d="m501.33 394.67h-490.67c-5.888 0-10.667 4.778-10.667 10.666s4.779 10.667 10.667 10.667h490.67c5.888 0 10.667-4.779 10.667-10.667-1e-3 -5.888-4.78-10.666-10.668-10.666z"/>
</symbol>
</svg>